# xmcd
#
# Track frame offsets: 
#        150
#        23865
#        47290
#        69227
#        91565
#        115317
#        133152
#        152705
#        170892
#        194007
#        214102
#        237310
#
# Disc length: 3431 seconds
#
# Revision: 5
# Processed by: cddbd v1.5.1PL0 Copyright (c) Steve Scherf et al.
# Submitted via: ExactAudioCopy v0.95a5
#
DISCID=a20d650c
DTITLE=王菲 - 寓言
DYEAR=2000
DGENRE=Pop
TTITLE0=寒武纪
TTITLE1=新房客
TTITLE2=香奈儿
TTITLE3=阿修罗
TTITLE4=彼岸花
TTITLE5=如果你是假的
TTITLE6=不爱我的我不爱
TTITLE7=你喜欢不如我喜欢
TTITLE8=再见萤火虫
TTITLE9=笑忘书
TTITLE10=萤火虫
TTITLE11=给自己的情书
EXTD=
EXTT0=
EXTT1=
EXTT2=
EXTT3=
EXTT4=
EXTT5=
EXTT6=
EXTT7=
EXTT8=
EXTT9=
EXTT10=
EXTT11=
PLAYORDER=
